<svg width="39" height="39" viewBox="0 0 39 39" fill="none" xmlns="http://www.w3.org/2000/svg">
<rect width="38.5517" height="38.5517" rx="19.2759" fill="black" fill-opacity="0.06"/>
<path d="M15.5259 16.6509L17.7324 17.9559C19.0186 18.7164 19.5324 18.7164 20.8194 17.9559L23.0259 16.6509" stroke="black" stroke-width="1.28448" stroke-linecap="round" stroke-linejoin="round"/>
<path d="M11.7885 20.3826C11.8372 22.6813 11.862 23.8311 12.7102 24.6823C13.5585 25.5343 14.739 25.5636 17.1007 25.6228C18.5557 25.6603 19.9972 25.6603 21.4522 25.6228C23.814 25.5636 24.9945 25.5343 25.8427 24.6823C26.691 23.8311 26.7157 22.6813 26.7652 20.3826C26.7802 19.6431 26.7802 18.9081 26.7652 18.1686C26.7157 15.8698 26.691 14.7201 25.8427 13.8688C24.9945 13.0168 23.814 12.9876 21.4522 12.9283C20.002 12.8917 18.551 12.8917 17.1007 12.9283C14.739 12.9876 13.5585 13.0168 12.7102 13.8688C11.862 14.7201 11.8372 15.8698 11.7877 18.1686C11.7719 18.9065 11.7727 19.6447 11.7885 20.3826Z" stroke="black" stroke-width="1.28448" stroke-linejoin="round"/>
</svg>
