<svg width="39" height="39" viewBox="0 0 39 39" fill="none" xmlns="http://www.w3.org/2000/svg">
<rect width="38.5517" height="38.5517" rx="19.2759" fill="black" fill-opacity="0.06"/>
<g clip-path="url(#clip0_688_31168)">
<path d="M21.0046 11.5854C21.4842 11.6265 21.9331 11.8381 22.2701 12.1817C22.6071 12.5253 22.8099 12.9783 22.8418 13.4585C22.9314 14.7035 23.0259 16.6408 23.0259 19.2759C23.0259 22.5028 22.955 24.8394 22.9044 26.0941C22.8925 26.3794 22.7705 26.649 22.5638 26.8461C22.3572 27.0432 22.0822 27.1525 21.7966 27.1509H12.6339C12.3475 27.1521 12.0718 27.0422 11.8647 26.8442C11.6577 26.6463 11.5355 26.3758 11.5239 26.0896C11.4733 24.8056 11.4009 22.4195 11.4009 19.2759C11.4009 16.7041 11.4976 14.7451 11.5884 13.4758C11.6201 12.9915 11.824 12.5346 12.1633 12.1876C12.5026 11.8406 12.9548 11.6264 13.4383 11.5839C14.4376 11.4916 15.7843 11.4009 17.2134 11.4009C18.65 11.4009 20.0034 11.4924 21.0046 11.5854Z" stroke="black" stroke-width="1.28448" stroke-linecap="round" stroke-linejoin="round"/>
<path d="M21.7966 27.1509H25.9479C26.235 27.1522 26.5114 27.0421 26.719 26.8437C26.9266 26.6454 27.0491 26.3743 27.0609 26.0874C27.1006 25.0794 27.1509 23.4624 27.1509 21.7134C27.1509 20.3773 27.0924 19.1728 27.029 18.2626C26.9585 17.2426 26.168 16.4409 25.1476 16.37C24.4267 16.3198 23.7046 16.2897 22.982 16.2796M19.0569 27.1509L19.0591 27.1115C19.0753 26.699 19.0884 26.1076 19.0884 25.2759C19.0884 24.4441 19.0753 23.8528 19.0591 23.4403C19.037 22.8823 18.7254 22.4105 18.1723 22.334C17.8543 22.2931 17.5339 22.2737 17.2134 22.2759C16.8928 22.2737 16.5725 22.2931 16.2545 22.334C15.7014 22.4105 15.3898 22.8823 15.3676 23.4403C15.3515 23.8528 15.3384 24.4441 15.3384 25.2759C15.3366 25.901 15.3471 26.5261 15.3699 27.1509M15.1509 14.7759V15.5259M15.1509 18.9009V19.6509M19.2759 14.7759V15.5259M19.2759 18.9009V19.6509" stroke="black" stroke-width="1.28448" stroke-linecap="round" stroke-linejoin="round"/>
</g>
<defs>
<clipPath id="clip0_688_31168">
<rect width="18" height="18" fill="white" transform="translate(10.2759 10.2759)"/>
</clipPath>
</defs>
</svg>
