<svg id="Layer_1" data-name="Layer 1" xmlns="http://www.w3.org/2000/svg" viewBox="0 0 142 40"><defs><style>.cls-1{fill:#a100ff;}</style></defs><path id="polygon4959" class="cls-1" d="M82.55,11.8v4.29l13.81-5.57V7.08L82.55,1.5V5.62L90.61,8.8Z"/><path id="path4961" d="M8.47,21.59c-3.86,0-6.7,1.71-7,5.32H5.81v-.09a2.2,2.2,0,0,1,2.4-2c1.63,0,2.4.94,2.4,2.57v.78h-2C4.43,28.2,1,29.48,1,33.52v.17C1,37,3.4,38.41,6.32,38.41a5.27,5.27,0,0,0,4.47-2.14v1.88h4.37V27.34c-.08-4.12-2.92-5.75-6.69-5.75Zm-1,13.65c-1.54,0-2.23-.78-2.23-1.89v-.17c0-1.46,1.12-2.06,3.35-2.06h1.8v1.54c.09,1.72-1.37,2.58-2.92,2.58Z"/><path id="path4963" d="M25.46,35.06c-2.14,0-3.26-1.45-3.26-4.72v-.51c0-3.18,1.29-4.72,3.26-4.72,1.55,0,2.41,1,2.66,2.57h4.3c-.35-4.2-3.44-6.09-7-6.09-4.29,0-7.73,2.92-7.73,8.41v.17c0,5.5,3.26,8.24,7.73,8.24s6.86-2.66,7.21-6.26H28.47c-.35,1.8-1.46,2.91-3,2.91Z"/><path id="path4965" d="M42.2,35.06c-2.14,0-3.26-1.45-3.26-4.72v-.51c0-3.18,1.29-4.72,3.26-4.72,1.55,0,2.41,1,2.66,2.57h4.29c-.34-4.2-3.43-6.09-7-6.09-4.3,0-7.73,2.92-7.73,8.41v.17c0,5.5,3.26,8.24,7.73,8.24s6.86-2.66,7.12-6.26h-4a3.07,3.07,0,0,1-3,2.91Z"/><path id="path4967" d="M59.11,35.15c-2,0-3.17-1.12-3.35-4H66.24V29.23c0-5.32-3.35-7.64-7.39-7.64-4.37,0-7.72,3-7.72,8.41v.34c0,5.41,3.17,8.16,7.81,8.16,4.21,0,6.78-2.32,7.21-5.41H61.94a2.52,2.52,0,0,1-2.83,2.06Zm-.26-10.47c1.81,0,2.92,1,3,3.43h-6C56.19,25.54,57.48,24.76,58.85,24.68Z"/><path id="path4971" d="M78.42,21.59a5.19,5.19,0,0,0-4.89,2.74v-2.4H69.07V38.07h4.46V27.77a2.76,2.76,0,0,1,2.83-2.58c1.64,0,2.41.86,2.41,2.75V38.07h4.55V27.25c0-3.95-2-5.66-4.9-5.66Z"/><path id="path4973" d="M91.73,32.92V25.28h3.09V21.93H91.73V17l-4.46,1.89v3h-2v3.35h1.89v8.15c0,3.27,1.63,4.9,5.15,4.9A8.82,8.82,0,0,0,94.91,38V34.46a4.67,4.67,0,0,1-1.55.26c-1,0-1.63-.6-1.63-1.8Z"/><path id="path4975" d="M107.27,32v.43A2.77,2.77,0,0,1,104.43,35c-1.63,0-2.31-.86-2.31-2.75V21.93H97.57v10.9c0,3.78,2.14,5.58,5.06,5.58a5,5,0,0,0,4.72-2.74v2.4h4.55V21.93h-4.55Z"/><path id="path4977" d="M119.63,24.85v-3h-4.47V38h4.47V29.66c0-2.66,1.8-3.61,4.89-3.61V21.59a5.07,5.07,0,0,0-4.89,3.26Z"/><path id="path4979" d="M141,29.14c0-5.32-3.35-7.55-7.38-7.55-4.38,0-7.73,3-7.73,8.41v.34c0,5.41,3.18,8.16,7.81,8.16,4.21,0,6.7-2.32,7.21-5.41h-4.2a2.9,2.9,0,0,1-3,2.15c-2,0-3.17-1.12-3.34-4h10.47V29.14Zm-10.47-1c.34-2.66,1.63-3.43,3.09-3.43,1.8,0,2.92,1,3,3.43Z"/></svg>