<svg id="Layer_1" data-name="Layer 1" xmlns="http://www.w3.org/2000/svg" viewBox="0 0 142 40"><defs><style>.cls-1{fill:#f90;}.cls-1,.cls-2{fill-rule:evenodd;}</style></defs><path class="cls-1" d="M86.18,30.72c-7.33,5.4-18,8.28-27.09,8.28A49,49,0,0,1,26,26.37c-.69-.62-.07-1.47.75-1a66.64,66.64,0,0,0,33.11,8.78A65.76,65.76,0,0,0,85.11,29c1.25-.52,2.28.82,1.07,1.72"/><path class="cls-1" d="M89.23,27.23C88.29,26,83,26.67,80.67,27c-.71.08-.82-.54-.18-1,4.19-2.95,11.06-2.1,11.86-1.11s-.2,7.88-4.14,11.17c-.6.5-1.18.24-.91-.43.88-2.21,2.86-7.16,1.93-8.36"/><path class="cls-2" d="M80.84,5.15V2.28a.7.7,0,0,1,.72-.72H94.39a.72.72,0,0,1,.74.72V4.74a4,4,0,0,1-1,1.8L87.52,16a14.2,14.2,0,0,1,7.32,1.57,1.31,1.31,0,0,1,.68,1.11v3.06a.68.68,0,0,1-1,.65,14.76,14.76,0,0,0-13.55,0c-.44.24-.91-.25-.91-.66V18.88a3.44,3.44,0,0,1,.47-2l7.7-11h-6.7a.71.71,0,0,1-.74-.72M34.05,23H30.14a.73.73,0,0,1-.69-.67v-20a.73.73,0,0,1,.75-.72h3.64a.74.74,0,0,1,.71.67V4.9h.07a5.15,5.15,0,0,1,5.13-3.71c2.45,0,4,1.18,5.07,3.71a5.77,5.77,0,0,1,9.91-1.52c1.23,1.69,1,4.14,1,6.28V22.3A.74.74,0,0,1,55,23H51.06a.75.75,0,0,1-.71-.73V11.69a24.68,24.68,0,0,0-.11-3.76A2,2,0,0,0,48,6.21a2.59,2.59,0,0,0-2.33,1.64,12.15,12.15,0,0,0-.37,3.84V22.3a.74.74,0,0,1-.75.73H40.6a.74.74,0,0,1-.7-.73V11.69c0-2.24.36-5.52-2.41-5.52s-2.69,3.2-2.69,5.52V22.3a.74.74,0,0,1-.75.73M106.18,1.19c5.79,0,8.92,5,8.92,11.3,0,6.11-3.46,11-8.92,11-5.69,0-8.79-5-8.79-11.17s3.14-11.08,8.79-11.08m0,4.09c-2.88,0-3.06,3.92-3.06,6.36s0,7.68,3,7.68,3.16-4.22,3.16-6.79a18.5,18.5,0,0,0-.58-5.31,2.44,2.44,0,0,0-2.55-1.94M122.61,23h-3.89a.74.74,0,0,1-.7-.73v-20a.73.73,0,0,1,.75-.66h3.61a.74.74,0,0,1,.7.56V5.24h.07c1.1-2.74,2.63-4.05,5.32-4.05A5.13,5.13,0,0,1,133,3.55c1,1.61,1,4.3,1,6.24V22.4a.76.76,0,0,1-.75.63h-3.92a.75.75,0,0,1-.69-.63V11.52c0-2.19.25-5.4-2.44-5.4A2.57,2.57,0,0,0,124,7.72a8.9,8.9,0,0,0-.62,3.8V22.3a.75.75,0,0,1-.76.73m-52-9.57a7.62,7.62,0,0,1-.73,4.14,3.17,3.17,0,0,1-2.7,1.77c-1.5,0-2.37-1.14-2.37-2.83,0-3.32,3-3.93,5.8-3.93v.85M74.55,23a.82.82,0,0,1-.92.1,9.5,9.5,0,0,1-2.24-2.61C69.25,22.65,67.73,23.3,65,23.3c-3.28,0-5.84-2-5.84-6.08a6.64,6.64,0,0,1,4.16-6.38c2.12-.93,5.08-1.1,7.34-1.35V9a5.07,5.07,0,0,0-.47-2.83,2.64,2.64,0,0,0-2.19-1,3,3,0,0,0-3.14,2.34.82.82,0,0,1-.68.72l-3.78-.41A.68.68,0,0,1,59.77,7c.86-4.59,5-6,8.72-6a8.89,8.89,0,0,1,5.88,1.94c1.9,1.78,1.72,4.14,1.72,6.72v6.08a5.36,5.36,0,0,0,1.47,3.62.73.73,0,0,1,0,1c-.8.67-2.22,1.9-3,2.59h0m-55.1-9.51a7.62,7.62,0,0,1-.73,4.14A3.15,3.15,0,0,1,16,19.37c-1.5,0-2.37-1.14-2.37-2.83,0-3.32,3-3.93,5.8-3.93v.85M23.39,23a.84.84,0,0,1-.93.1,9.86,9.86,0,0,1-2.24-2.61c-2.14,2.19-3.65,2.84-6.43,2.84-3.28,0-5.84-2-5.84-6.08a6.64,6.64,0,0,1,4.16-6.38c2.12-.93,5.08-1.1,7.34-1.35V9A5.07,5.07,0,0,0,19,6.15a2.64,2.64,0,0,0-2.19-1,3,3,0,0,0-3.14,2.34A.84.84,0,0,1,13,8.2L9.19,7.79A.7.7,0,0,1,8.6,7c.88-4.59,5-6,8.73-6a8.89,8.89,0,0,1,5.88,1.94c1.9,1.78,1.72,4.14,1.72,6.72v6.08a5.36,5.36,0,0,0,1.47,3.62.72.72,0,0,1,0,1c-.8.67-2.21,1.9-3,2.59h0"/></svg>