<svg id="Layer_1" data-name="Layer 1" xmlns="http://www.w3.org/2000/svg" viewBox="0 0 142 40"><defs><style>.cls-1{fill:#0063c3;}</style></defs><path class="cls-1" d="M89.1,14.19a8.57,8.57,0,0,0-7.34-3.88,9.76,9.76,0,0,0,0,19.52,9.57,9.57,0,0,0,8.72-5.61h-10v-8H98.78V3.74h16.27v8h-8.52v4.43h8.52v8h-8.52v4.15h8.52v7.82H98.78V24.43c-1.93,8.86-9.06,13.42-17,13.42s-14.53-4.7-16.4-12.94V36.33h-8v-19s-4.64,4.08-4.64,19H44.53c0-14.88-4.64-19-4.64-19v19h-8V3.39c9.21,0,15.3,10.38,16.75,16.47,1.45-6.09,7.54-16.47,16.75-16.47V14.32C67,7.06,74.22,2.15,81.83,2.15s14.6,5.88,16.06,12Z"/><path class="cls-1" d="M132.69,36.33a30.79,30.79,0,0,0-7-15.29V36.33h-8.52V3.88c1.87,0,8.65,3.66,15.58,13.63V3.88H141V36.26h-8.3v.07Z"/><path class="cls-1" d="M11.52,28.17c-.21.9-1.66,5.88-2.22,8.16H1A103,103,0,0,1,6.54,20.55c2.21-4.63,5-9.75,9.62-13.21A18.28,18.28,0,0,1,30,3.32v33H22V28.17ZM22,20.62V12.94a30.76,30.76,0,0,0-7,7.68Z"/></svg>