<svg id="Layer_1" data-name="Layer 1" xmlns="http://www.w3.org/2000/svg" viewBox="0 0 142 40"><defs><style>.cls-1{fill:#e31837;}.cls-2{fill:#012169;}</style></defs><path class="cls-1" d="M128,27a54.39,54.39,0,0,1,13-8.13c-.49-.31-1.24-.76-2.1-1.24-4.06,1.34-8.81,4.31-13.05,7.68.72.54,1.48,1.11,2.18,1.69Z"/><path class="cls-2" d="M126.16,17.5c-.6-.29-1.26-.56-1.77-.8a44.43,44.43,0,0,0-6.06,3.72c.54.29,1.13.64,1.75,1A43.41,43.41,0,0,1,126.16,17.5Z"/><path class="cls-1" d="M129.8,15.83a28.14,28.14,0,0,0-5.07-1.77c-.53.19-1.27.49-1.77.7A28.19,28.19,0,0,1,128,16.61C128.56,16.35,129.29,16,129.8,15.83Z"/><path class="cls-2" d="M121.11,15.58a54.21,54.21,0,0,0-6,3.32c.47.22.93.39,1.57.7a45,45,0,0,1,6-3.52c-.64-.23-1.24-.39-1.63-.5Z"/><path class="cls-1" d="M131.51,15.23c.53-.18,1.13-.33,1.65-.49A37.23,37.23,0,0,0,128,13c-.27.08-1.09.29-1.65.47A34,34,0,0,1,131.51,15.23Zm-9.58,7.31c.62.37,1.28.87,1.92,1.3a41.69,41.69,0,0,1,13.07-7.29c-.64-.33-1.21-.62-1.93-1C132.23,16.28,127.51,18.16,121.93,22.54Z"/><path class="cls-2" d="M1,26H4.11c1.58,0,2.31-.82,2.31-2a1.65,1.65,0,0,0-1.49-1.75,1.48,1.48,0,0,0,1.3-1.55c0-1-.74-1.83-2.31-1.83H1V26Zm2.7-3c.59,0,1,.3,1,.88s-.38.87-1,.87h-1V23h1Zm-.19-2.83c.58,0,1,.25,1,.83s-.39.84-1,.84H2.69V20.15Zm9.2-1.27H11L8.29,26h1.77l.49-1.48h2.56L13.6,26h1.79Zm-.88,1.71.84,2.63H11Zm12.43-1.71H22.64v4.77l-3-4.77H17.8V26h1.61V21.25l3,4.75h1.81ZM31.7,26l-2.33-3.62V26H27.64V18.88h1.73V22.3l2.22-3.42h1.92L31.18,22.3,33.72,26Zm8.15-3.56a2,2,0,1,0,3.93,0,2,2,0,1,0-3.93,0Zm-1.83,0a3.8,3.8,0,1,1,3.79,3.71A3.61,3.61,0,0,1,38,22.44ZM48,26h1.73V23.2H52V21.84H49.71v-1.6h2.72l.31-1.36H48Zm12.83-7.12H59.06L56.4,26h1.77l.48-1.48h2.57L61.71,26h1.78Zm-.87,1.71.83,2.63H59.06Zm13.82-1.71h-2l-1.85,3.85L68,18.88H66V26h1.56V21.23L69.87,26l2.3-4.77V26h1.61ZM77.12,26H82V24.64H78.86V23h2.46V21.72H78.86V20.24h2.85L82,18.88h-4.9Zm11.46,0h1.88l-1.77-3A1.83,1.83,0,0,0,90.13,21c0-1.28-.77-2.14-2.52-2.14H84.86V26h1.7v-2.8H87Zm-1.31-5.8c.72,0,1.09.32,1.09.92S88,22,87.27,22h-.73V20.2ZM93.05,26h1.73V18.9H93.05Zm10.25-1.91a3.05,3.05,0,0,1-1.85.63,2.17,2.17,0,0,1-2.26-2.28,2.13,2.13,0,0,1,2.2-2.27,2.93,2.93,0,0,1,1.81.62V19.17a4,4,0,0,0-2-.46,3.71,3.71,0,1,0,0,7.42,4.36,4.36,0,0,0,2.1-.46V24.09Zm6.34-5.21h-1.75L105.22,26H107l.49-1.48H110l.49,1.48h1.79Zm-.88,1.71.84,2.63h-1.71Z"/></svg>