<svg id="Layer_1" data-name="Layer 1" xmlns="http://www.w3.org/2000/svg" viewBox="0 0 142 40"><defs><style>.cls-1{fill:#d03027;}.cls-2{fill:#004977;}</style></defs><path class="cls-1" d="M89.91,28.48h0c-4.51,3.2-9.85,6.55-15.59,10.07l-.23.13a.18.18,0,0,0,0,.24.19.19,0,0,0,.24,0l.19-.1c4.87-2.54,10.47-5.56,16.1-8.66l.09-.05a7.1,7.1,0,0,1-.75-1.68ZM119.5,4.53C112.4-3.31,66.67,3.74,47.23,8l-.45.1a.16.16,0,0,0-.14.19.17.17,0,0,0,.2.14l.45-.09c16.1-2.87,49.6-6.84,56.81.31,2.2,2.18,1.68,5-.88,8.3a6.59,6.59,0,0,1,2.8,4C116,14.34,122.66,8,119.5,4.53Z"/><path class="cls-2" d="M92.79,26.42c.09,2.76,1.84,5,4.11,5,4.41,0,6.29-5.42,6.16-9-.1-2.76-1.89-5-4.16-5C95.11,17.39,92.66,22.78,92.79,26.42Zm-2.33-.14c-.16-4.71,3.53-9.53,8.89-9.53,3.58,0,5.92,2.39,6.05,6.05.17,5-3.27,9.52-8.88,9.52C92.93,32.32,90.59,29.94,90.46,26.28ZM39.73,25a3.76,3.76,0,0,1-.74.21q-.47.11-1.68.3a2.75,2.75,0,0,0-1.17.37.86.86,0,0,0-.37.57.58.58,0,0,0,.24.59,2,2,0,0,0,1.08.23,3.4,3.4,0,0,0,1.11-.18,2.46,2.46,0,0,0,.91-.49,1.45,1.45,0,0,0,.39-.57,6.17,6.17,0,0,0,.23-1Zm4.65-2.89a10.63,10.63,0,0,1-.2,1.47L43.39,28a.83.83,0,0,0,.44.92l0,.17H39.3l0-1.12a8.93,8.93,0,0,1-2.16.93,8.1,8.1,0,0,1-2.16.26c-1.46,0-2.29-.15-2.87-.66a1.79,1.79,0,0,1-.84-1.58,2.49,2.49,0,0,1,.54-1.31,3.46,3.46,0,0,1,1.2-.84,6.63,6.63,0,0,1,1.81-.51c.8-.13,1.91-.25,3.39-.38a4.74,4.74,0,0,0,1.48-.33c.31-.12.44-.26.48-.51.08-.45-.06-.72-.67-.84a18.54,18.54,0,0,0-6.24.6l.85-2.3a40.16,40.16,0,0,1,6.06-.5c3.26,0,4.3.93,4.26,2.12Zm13.08,7L59,20.28h4.32l-1.56,8.83Zm1.8-10.88c.13-.72,1.28-1.31,2.55-1.31s2.22.59,2.1,1.31-1.28,1.32-2.57,1.32-2.2-.59-2.08-1.32Zm19.42,6.82a7,7,0,0,1-.76.21c-.3.07-.86.16-1.67.29a2.78,2.78,0,0,0-1.16.37.92.92,0,0,0-.38.56.55.55,0,0,0,.24.59A2,2,0,0,0,76,27.3a3.78,3.78,0,0,0,1.11-.17,2.71,2.71,0,0,0,.91-.49,1.36,1.36,0,0,0,.38-.57,7.06,7.06,0,0,0,.24-1Zm4.65-2.9a11.07,11.07,0,0,1-.22,1.48l-.78,4.42a.85.85,0,0,0,.44.92l0,.15H78.24l0-1.13a8.74,8.74,0,0,1-2.17.92,7.67,7.67,0,0,1-2.17.27c-1.46,0-2.29-.14-2.86-.65s-.88-.87-.85-1.58a2.43,2.43,0,0,1,.55-1.32,3.33,3.33,0,0,1,1.2-.84,6.77,6.77,0,0,1,1.8-.51c.8-.13,1.92-.26,3.4-.38a5.06,5.06,0,0,0,1.48-.33.64.64,0,0,0,.48-.51c.08-.45-.06-.71-.66-.84a18.49,18.49,0,0,0-6.24.6L73,20.52a41.35,41.35,0,0,1,6-.49c3.25,0,4.29.94,4.26,2.12Zm-52.7,3.79a15.64,15.64,0,0,1-3.58.39c-2.07,0-3.71-1-3.62-2.91.07-1.25,1.55-3.89,5.31-3.89a6.16,6.16,0,0,1,3.36.92l.55-3.06a10.31,10.31,0,0,0-4.27-.72c-4.94,0-9.68,2.29-10.27,6.86s5.07,5.79,7.58,5.78a42.07,42.07,0,0,0,4.37-.21Zm35.09-5.71.31-1.8,4.52-1-.49,2.78h2.22L71.86,22H69.71l-1.3,7.1s-4.35,0-4.37,0L65.34,22H63.71L64,20.23Zm17.6,8.88,2.21-12.32,4.29.12-2.1,12.2ZM51.75,22.35a2.52,2.52,0,0,0-1.54.51,2.31,2.31,0,0,0-.85,1.51A2,2,0,0,0,49.61,26a1.71,1.71,0,0,0,1.34.51A2.5,2.5,0,0,0,52,26.33a2.17,2.17,0,0,0,.85-.73,3,3,0,0,0,.48-1.16,1.75,1.75,0,0,0-.31-1.57,1.69,1.69,0,0,0-1.31-.52Zm-7.87,9.81L46,20.33h3.79l-.29,1.51a3.42,3.42,0,0,1,1.58-1.12,6.46,6.46,0,0,1,2.45-.52,4.57,4.57,0,0,1,2.34.43,3.17,3.17,0,0,1,1.53,1.68,4.45,4.45,0,0,1,.19,2.4,5.24,5.24,0,0,1-2.14,3.46,5.67,5.67,0,0,1-3.68,1.07,5.53,5.53,0,0,1-1.33-.14,3.06,3.06,0,0,1-.86-.35,3.79,3.79,0,0,1-.71-.64l-.71,4Zm78.4-8.72c0-.71-.39-1.2-1.12-1.2-1.77,0-3.66,3.47-4,4.87C120.09,27.12,122.35,25.39,122.28,23.44Zm.38,5.44.34.23a5.43,5.43,0,0,1-4.69,3.17A3.07,3.07,0,0,1,115.16,29c-.14-3.78,3.41-7.3,6.32-7.3,1.24,0,2.4.54,2.45,1.89.11,3-4.12,3.93-6.91,4a3.62,3.62,0,0,0-.11,1.11,2.22,2.22,0,0,0,2.37,2.3,4.54,4.54,0,0,0,3.38-2.15Z"/><path class="cls-2" d="M105.34,23.34c.29,0,.78-.1,1-.1s.61.06.63.38-.33,1.53-.4,1.84l-.68,3c-.27,1.22-.56,2.49-.83,3.49h1.73l1-4.7c3-3.09,4.11-4.1,4.8-4.1a.5.5,0,0,1,.55.54,9.63,9.63,0,0,1-.43,2.14l-1,3.43a6.85,6.85,0,0,0-.38,2,1,1,0,0,0,1.17,1.09c1.26,0,2.18-1.32,3-2.62l-.23-.42c-.33.52-1.08,1.66-1.67,1.66-.18,0-.36-.13-.37-.44a5,5,0,0,1,.27-1.4l1.1-4a9.55,9.55,0,0,0,.43-2.2,1,1,0,0,0-1.14-1.1c-1.14,0-2.65.83-5.85,4.51h0l.41-1.79c.22-1,.43-2,.64-2.72a29.11,29.11,0,0,1-3.68,1Z"/></svg>