<svg id="Layer_1" data-name="Layer 1" xmlns="http://www.w3.org/2000/svg" viewBox="0 0 142 40"><defs><style>.cls-1{fill:#141414;}.cls-1,.cls-2{fill-rule:evenodd;}.cls-2{fill:#005eb8;}</style></defs><path class="cls-1" d="M90.1,9.76V30.23h17.51l-2.21-3.61H94.11V21.44H105V18H94.11V13.28h11.26l2.18-3.52Z"/><path class="cls-1" d="M7.25,9.76C3.1,9.76,1,12.36,1,16.16V23.8c0,4.38,2.7,6.43,6.22,6.43H19.74l-2.32-3.74H8c-2,0-2.88-.75-2.88-3.06V16.5c0-2.24.74-3.11,2.94-3.11h9.46l2.23-3.63Z"/><path class="cls-1" d="M72.6,9.76c-2.4,0-4.86,1.49-4.86,5.31v1c0,4,2.36,5.51,4.73,5.53h8.3c.87,0,1.56.14,1.56,1.64V25c0,1.36-.67,1.66-1.59,1.66H69.82l-2.24,3.6H81c3.24,0,5.43-1.66,5.43-5.5v-1.4c0-3.71-2-5.47-5.2-5.47H73.3c-.88,0-1.49-.24-1.49-1.59V14.85c0-1.15.42-1.57,1.45-1.57H83.65l2.17-3.53Z"/><path class="cls-1" d="M52.62,9.77,43.21,30.23h4.44L49.49,26H59.7l1.82,4.22H66L56.57,9.77Zm2,4.25,3.62,8.5H51Z"/><path class="cls-2" d="M124.27,6.55a.94.94,0,0,0-.92,1v6.65h17l-7.76-7.61Z"/><path class="cls-2" d="M141,16.18a.94.94,0,0,0-.92-1h-6.44V32.8l7.36-8Z"/><path class="cls-2" d="M131.68,33.45a1,1,0,0,0,.92-1V25.84h-17l7.75,7.6Z"/><path class="cls-2" d="M115,23.83a.94.94,0,0,0,.92,1h6.44V7.2l-7.35,8Z"/><path class="cls-1" d="M37,9.76v8.12h-11V9.76h-4V30.23h4V21.44H37v8.79h4V9.76Z"/></svg>