<svg id="Layer_1" data-name="Layer 1" xmlns="http://www.w3.org/2000/svg" xmlns:xlink="http://www.w3.org/1999/xlink" viewBox="0 0 142 40"><defs><style>.cls-1{fill:#211d1c;}.cls-1,.cls-2{fill-rule:evenodd;}.cls-2{fill:url(#linear-gradient);}</style><linearGradient id="linear-gradient" x1="-9574.8" y1="-3520.44" x2="-10188.84" y2="-2946.59" gradientTransform="matrix(0.02, 0, 0, -0.02, 317.01, -59.47)" gradientUnits="userSpaceOnUse"><stop offset="0" stop-color="#f7991e"/><stop offset="1" stop-color="#de5214"/></linearGradient></defs><path class="cls-1" d="M137.21,15.39c0-4.15-2.86-6.54-7.84-6.54H123V31h4.32V22.1h.56l6,8.9h5.32l-7-9.33a5.9,5.9,0,0,0,5.05-6.28Zm2.11-7a1.7,1.7,0,1,0,1.68,1.7A1.68,1.68,0,0,0,139.32,8.35Zm0,3.09a1.39,1.39,0,1,1,1.34-1.39A1.37,1.37,0,0,1,139.32,11.44ZM140,9.68c0-.39-.27-.6-.74-.6h-.63V11h.47v-.75l.54.75h.57l-.64-.8A.53.53,0,0,0,140,9.68Zm-.82.26h-.08V9.43h.08c.23,0,.35.09.35.25s-.12.26-.35.26ZM95.22,23.73,89.31,8.84H84.59L94,31.57h2.33l9.57-22.73h-4.68l-6,14.89ZM43.85,19.94A11.47,11.47,0,0,0,55.54,31.5,12,12,0,0,0,61,30.21V25.12a6.92,6.92,0,0,1-5.22,2.43c-4.35,0-7.44-3.16-7.44-7.65a7.36,7.36,0,0,1,7.24-7.6A7.24,7.24,0,0,1,61,14.79V9.7a11.08,11.08,0,0,0-5.32-1.36,11.65,11.65,0,0,0-11.79,11.6Zm-7.74-2.59c-2.59-1-3.35-1.6-3.35-2.79,0-1.4,1.35-2.46,3.22-2.46a4.46,4.46,0,0,1,3.48,1.79l2.26-3a9.71,9.71,0,0,0-6.51-2.45c-3.92,0-6.91,2.72-6.91,6.35,0,3,1.39,4.61,5.45,6.07a18.2,18.2,0,0,1,3,1.26,2.67,2.67,0,0,1,1.3,2.3,3.16,3.16,0,0,1-3.36,3.12A5.13,5.13,0,0,1,30,24.63l-2.79,2.68a8.59,8.59,0,0,0,7.67,4.22c4.49,0,7.64-3,7.64-7.27,0-3.52-1.45-5.12-6.37-6.91ZM21.22,31h4.33V8.84H21.22ZM7.34,8.84H1V31H7.31a11.5,11.5,0,0,0,7.9-2.56,11.11,11.11,0,0,0,4-8.5C19.24,13.4,14.35,8.84,7.34,8.84Zm5.05,16.65C11,26.71,9.27,27.25,6.48,27.25H5.32V12.6H6.48c2.79,0,4.48.5,5.91,1.79a7.43,7.43,0,0,1,2.39,5.51,7.59,7.59,0,0,1-2.39,5.59ZM107.84,31H120.1V27.25h-7.94v-6h7.65V17.52h-7.65V12.6h7.94V8.85H107.84V31Zm20.7-12h-1.26V12.33h1.33c2.69,0,4.15,1.13,4.15,3.29S131.3,19,128.54,19Z"/><path class="cls-2" d="M74.15,8.21A11.79,11.79,0,0,1,85.94,20h0a11.79,11.79,0,1,1-23.57,0h0A11.79,11.79,0,0,1,74.15,8.21Z"/></svg>