<svg id="Layer_1" data-name="Layer 1" xmlns="http://www.w3.org/2000/svg" viewBox="0 0 142 40"><defs><style>.cls-1{fill:#fff;}.cls-2{fill:#bf8a15;}.cls-3{fill:#005429;}</style></defs><path class="cls-1" d="M15.52,33.71A14.1,14.1,0,1,0,1.43,19.61a14.1,14.1,0,0,0,14.09,14.1Z"/><path class="cls-2" d="M13.35,22h5.19l1.52,1H13.13L10,32.56A14.36,14.36,0,0,1,2.09,13.71,14.42,14.42,0,0,1,19.53,5.45,14.44,14.44,0,0,1,29.22,23.6a14.08,14.08,0,0,1-4.63,6.85l-3.83-6.38,5.33,3s0,0,0-.07l-7-6,9,1.38s0,0,0,0l-.06-.05-8.51-3,8.85-2.14s0,0,0-.05l-9.08.6,7.11-5.38s-.05-.05-.06,0l-8,4,4.4-7.78s0,0,0,0l-5.76,6.75,1.1-8.88s0,0-.06,0L15.5,15,13.18,6.13s0,0-.06,0l.64,9.21L8.29,8.22s0,0,0,0l4.13,7.87L4.56,11.84l0,0,7,5.71L2.6,16.65s0,0,0,.05l8.6,2.52L2.64,21.74a0,0,0,0,0,0,.05l8.83-1-6.94,5.9a0,0,0,0,0,0,.05l.1,0,5.55-2.91,1.31-2.07H13l-1-.73,3.44-5.51-2,6.51h0Zm0,0Z"/><polygon class="cls-3" points="38.96 29.23 32.03 29.23 37.58 9.43 51.78 9.43 50.42 14.13 43.18 14.13 42.25 17.5 49.49 17.5 48.27 21.82 41.03 21.82 38.96 29.23 38.96 29.23"/><path class="cls-3" d="M55,29.23H48.14L52.2,14.76h6.85L55,29.23Zm4.43-15.85H52.57l1.12-4h6.84l-1.11,4Z"/><path class="cls-3" d="M72.75,29.23H66l.48-1.62a7.07,7.07,0,0,1-4.93,2c-2.23,0-3.64-1.06-3.64-3.32a20.45,20.45,0,0,1,2.44-8.81,5.69,5.69,0,0,1,5.23-2.94,4.32,4.32,0,0,1,3.93,1.91l1.91-7h6.84l-5.54,19.8ZM67.6,19.06a1.54,1.54,0,0,0-1.57,1,9.89,9.89,0,0,0-1,3.61,1,1,0,0,0,1.06,1,2.08,2.08,0,0,0,1.17-.34l1.38-4.76a1.39,1.39,0,0,0-1.09-.58Zm0,0Z"/><path class="cls-3" d="M92.08,22.91H82.63a8.61,8.61,0,0,0-.37,1.91.92.92,0,0,0,1,1c1,0,1.38-.37,1.78-1.77h6.71C90.91,28.19,86,29.6,83,29.6c-4.06,0-7.22-.59-7.22-4.49a15,15,0,0,1,2.52-7.59c1.73-2.25,4.73-3.1,7.49-3.1,4.24,0,7,.87,7,4.48a18.09,18.09,0,0,1-.74,4Zm-6.85-4.86c-.84,0-1.43.59-1.8,2.05h2.81a5,5,0,0,0,.19-1c0-.8-.48-1-1.2-1Z"/><polygon class="cls-3" points="98.96 29.23 92.12 29.23 97.66 9.43 104.51 9.43 98.96 29.23"/><path class="cls-3" d="M108,29.23h-6.85l4.06-14.47h6.85L108,29.23Zm4.43-15.85h-6.85l1.12-4h6.85l-1.12,4Z"/><path class="cls-3" d="M124.75,14.76l.6,3.27h-5.24l-1.54,5.49a5.07,5.07,0,0,0-.24,1.3c0,.64.26.85,1.19.85H121l-1,3.56h-6.1c-2,0-2.79-1-2.79-2.47a7,7,0,0,1,.3-2l3.71-13.19h6.85L121,14.76Zm0,0Z"/><polygon class="cls-3" points="31.89 31.45 33.6 31.45 32.51 35.01 30.81 35.01 31.89 31.45 31.89 31.45"/><polygon class="cls-3" points="37.85 31.45 40.34 31.45 40.98 33.83 41 33.83 41.72 31.45 43.2 31.45 42.11 35 39.72 35.01 39.03 32.47 39.02 32.47 38.26 35.01 36.78 35.01 37.85 31.45 37.85 31.45"/><polygon class="cls-3" points="46.44 31.45 48.32 31.45 48.65 33.69 50.37 31.45 52.11 31.45 49.24 35 47.15 35 46.44 31.45 46.44 31.45"/><polygon class="cls-3" points="55.38 31.45 59.26 31.45 59.04 32.17 56.81 32.17 56.59 32.9 58.69 32.9 58.48 33.59 56.39 33.59 56.17 34.29 58.42 34.29 58.2 35.01 54.29 35.02 55.38 31.45 55.38 31.45"/><polygon class="cls-3" points="72.05 32.32 70.72 32.32 70.99 31.46 75.35 31.45 75.09 32.32 73.76 32.32 72.94 35 71.24 35 72.05 32.32 72.05 32.32"/><polygon class="cls-3" points="78.88 31.45 81.47 31.45 81.59 33.83 81.6 33.83 83.15 31.45 85.74 31.45 84.66 35.01 83.08 35.01 83.89 32.33 83.88 32.33 81.96 35.01 80.31 35.01 80.08 32.33 80.06 32.33 79.25 35 77.8 35 78.88 31.45 78.88 31.45"/><polygon class="cls-3" points="96.61 31.45 99.1 31.45 99.74 33.83 99.76 33.83 100.48 31.45 101.96 31.45 100.88 35.01 98.46 35 97.79 32.47 97.78 32.47 97 35 95.52 35.01 96.61 31.45 96.61 31.45"/><polygon class="cls-3" points="106.06 32.32 104.72 32.32 104.99 31.45 109.35 31.45 109.09 32.31 107.76 32.31 106.95 35 105.24 35.01 106.06 32.32 106.06 32.32"/><path class="cls-3" d="M64.49,32.53a.18.18,0,0,1,0-.16c0-.18.28-.3.64-.3a1.38,1.38,0,0,1,.63.1.26.26,0,0,1,.1.29h1.51c.18-.64-.22-1.05-1.93-1.05s-2.54.35-2.78,1.13a.63.63,0,0,0,.1.62c.42.41,2.31.58,2.47.8a.18.18,0,0,1,0,.16c-.09.29-.49.36-.84.36a1,1,0,0,1-.6-.14.33.33,0,0,1,0-.33H62.17c-.16.55-.23,1.12,2,1.12,1.85,0,2.69-.45,2.91-1.15a.61.61,0,0,0-.12-.66c-.41-.42-2.24-.58-2.44-.8Zm0,0Z"/><polygon class="cls-3" points="89.22 31.46 93.1 31.45 92.88 32.17 90.65 32.17 90.43 32.9 92.53 32.9 92.31 33.59 90.22 33.59 90.01 34.3 92.26 34.29 92.03 35.01 88.13 35.02 89.22 31.45 89.22 31.46"/><path class="cls-3" d="M134,14.76l-3.71,8,.1-8h-6.92l1.32,14.47c-.17.84-.44,1.32-1,1.56a6.89,6.89,0,0,1-2.35.18h-.09l-1.09,3.93h4.67c2.76,0,4.12-1.39,6.08-4.46l10-15.69Zm0,0Z"/><path class="cls-3" d="M113.78,32.52a.15.15,0,0,1,0-.16c0-.18.28-.3.64-.3a1.38,1.38,0,0,1,.63.1.26.26,0,0,1,.1.29h1.51c.18-.64-.22-1.05-1.93-1.05s-2.54.35-2.78,1.13a.61.61,0,0,0,.1.62c.42.41,2.31.58,2.46.8a.17.17,0,0,1,0,.17c-.09.28-.49.36-.84.36a1,1,0,0,1-.61-.15.33.33,0,0,1,0-.32h-1.58c-.16.55-.23,1.12,2,1.12,1.85,0,2.69-.45,2.9-1.15a.57.57,0,0,0-.12-.66c-.4-.42-2.23-.58-2.43-.8Zm0,0Z"/><path class="cls-3" d="M135.07,29a1.24,1.24,0,0,1,0-2.48,1.24,1.24,0,1,1,0,2.48Zm0-2.75a1.51,1.51,0,1,0,1.51,1.51,1.51,1.51,0,0,0-1.51-1.51Z"/><path class="cls-3" d="M134.81,27.62v-.44H135c.18,0,.37,0,.37.22s-.19.22-.37.22Zm.87-.21c0-.3-.18-.47-.55-.47h-.59v1.55h.27v-.63H135l.39.63h.3l-.41-.65a.4.4,0,0,0,.38-.43Zm0,0Z"/><path class="cls-3" d="M134,14.8l-3.7,8,.11-8h-6.91l1.33,14.41a1.9,1.9,0,0,1-1,1.56,6.89,6.89,0,0,1-2.35.18h-.08l-1.09,3.91H125c2.75,0,4.1-1.39,6.06-4.45L141,14.8Z"/><path class="cls-1" d="M15.52,33.71A14.1,14.1,0,1,0,1.43,19.61a14.1,14.1,0,0,0,14.09,14.1Z"/><path class="cls-2" d="M13.35,22h5.19l1.52,1H13.13L10,32.56A14.36,14.36,0,0,1,2.09,13.71,14.42,14.42,0,0,1,19.53,5.45,14.44,14.44,0,0,1,29.22,23.6a14.08,14.08,0,0,1-4.63,6.85l-3.83-6.38,5.33,3s0,0,0-.07l-7-6,9,1.38s0,0,0,0l-.06-.05-8.51-3,8.85-2.14s0,0,0-.05l-9.08.6,7.11-5.38s-.05-.05-.06,0l-8,4,4.4-7.78s0,0,0,0l-5.76,6.75,1.1-8.88s0,0-.06,0L15.5,15,13.18,6.13s0,0-.06,0l.64,9.21L8.29,8.22s0,0,0,0l4.13,7.87L4.56,11.84l0,0,7,5.71L2.6,16.65s0,0,0,.05l8.6,2.52L2.64,21.74a0,0,0,0,0,0,.05l8.83-1-6.94,5.9a0,0,0,0,0,0,.05l.1,0,5.55-2.91,1.31-2.07H13l-1-.73,3.44-5.51-2,6.51h0Zm0,0Z"/><polygon class="cls-3" points="38.96 29.23 32.03 29.23 37.58 9.43 51.78 9.43 50.42 14.13 43.18 14.13 42.25 17.5 49.49 17.5 48.27 21.82 41.03 21.82 38.96 29.23 38.96 29.23"/><path class="cls-3" d="M55,29.23H48.14L52.2,14.76h6.85L55,29.23Zm4.43-15.85H52.57l1.12-4h6.84l-1.11,4Z"/><path class="cls-3" d="M72.75,29.23H66l.48-1.62a7.07,7.07,0,0,1-4.93,2c-2.23,0-3.64-1.06-3.64-3.32a20.45,20.45,0,0,1,2.44-8.81,5.69,5.69,0,0,1,5.23-2.94,4.32,4.32,0,0,1,3.93,1.91l1.91-7h6.84l-5.54,19.8ZM67.6,19.06a1.54,1.54,0,0,0-1.57,1,9.89,9.89,0,0,0-1,3.61,1,1,0,0,0,1.06,1,2.08,2.08,0,0,0,1.17-.34l1.38-4.76a1.39,1.39,0,0,0-1.09-.58Zm0,0Z"/><path class="cls-3" d="M92.08,22.91H82.63a8.61,8.61,0,0,0-.37,1.91.92.92,0,0,0,1,1c1,0,1.38-.37,1.78-1.77h6.71C90.91,28.19,86,29.6,83,29.6c-4.06,0-7.22-.59-7.22-4.49a15,15,0,0,1,2.52-7.59c1.73-2.25,4.73-3.1,7.49-3.1,4.24,0,7,.87,7,4.48a18.09,18.09,0,0,1-.74,4Zm-6.85-4.86c-.84,0-1.43.59-1.8,2.05h2.81a5,5,0,0,0,.19-1c0-.8-.48-1-1.2-1Z"/><polygon class="cls-3" points="98.96 29.23 92.12 29.23 97.66 9.43 104.51 9.43 98.96 29.23"/><path class="cls-3" d="M108,29.23h-6.85l4.06-14.47h6.85L108,29.23Zm4.43-15.85h-6.85l1.12-4h6.85l-1.12,4Z"/><path class="cls-3" d="M124.75,14.76l.6,3.27h-5.24l-1.54,5.49a5.07,5.07,0,0,0-.24,1.3c0,.64.26.85,1.19.85H121l-1,3.56h-6.1c-2,0-2.79-1-2.79-2.47a7,7,0,0,1,.3-2l3.71-13.19h6.85L121,14.76Zm0,0Z"/><polygon class="cls-3" points="31.89 31.45 33.6 31.45 32.51 35.01 30.81 35.01 31.89 31.45 31.89 31.45"/><polygon class="cls-3" points="37.85 31.45 40.34 31.45 40.98 33.83 41 33.83 41.72 31.45 43.2 31.45 42.11 35 39.72 35.01 39.03 32.47 39.02 32.47 38.26 35.01 36.78 35.01 37.85 31.45 37.85 31.45"/><polygon class="cls-3" points="46.44 31.45 48.32 31.45 48.65 33.69 50.37 31.45 52.11 31.45 49.24 35 47.15 35 46.44 31.45 46.44 31.45"/><polygon class="cls-3" points="55.38 31.45 59.26 31.45 59.04 32.17 56.81 32.17 56.59 32.9 58.69 32.9 58.48 33.59 56.39 33.59 56.17 34.29 58.42 34.29 58.2 35.01 54.29 35.02 55.38 31.45 55.38 31.45"/><polygon class="cls-3" points="72.05 32.32 70.72 32.32 70.99 31.46 75.35 31.45 75.09 32.32 73.76 32.32 72.94 35 71.24 35 72.05 32.32 72.05 32.32"/><polygon class="cls-3" points="78.88 31.45 81.47 31.45 81.59 33.83 81.6 33.83 83.15 31.45 85.74 31.45 84.66 35.01 83.08 35.01 83.89 32.33 83.88 32.33 81.96 35.01 80.31 35.01 80.08 32.33 80.06 32.33 79.25 35 77.8 35 78.88 31.45 78.88 31.45"/><polygon class="cls-3" points="96.61 31.45 99.1 31.45 99.74 33.83 99.76 33.83 100.48 31.45 101.96 31.45 100.88 35.01 98.46 35 97.79 32.47 97.78 32.47 97 35 95.52 35.01 96.61 31.45 96.61 31.45"/><polygon class="cls-3" points="106.06 32.32 104.72 32.32 104.99 31.45 109.35 31.45 109.09 32.31 107.76 32.31 106.95 35 105.24 35.01 106.06 32.32 106.06 32.32"/><path class="cls-3" d="M64.49,32.53a.18.18,0,0,1,0-.16c0-.18.28-.3.64-.3a1.38,1.38,0,0,1,.63.1.26.26,0,0,1,.1.29h1.51c.18-.64-.22-1.05-1.93-1.05s-2.54.35-2.78,1.13a.63.63,0,0,0,.1.62c.42.41,2.31.58,2.47.8a.18.18,0,0,1,0,.16c-.09.29-.49.36-.84.36a1,1,0,0,1-.6-.14.33.33,0,0,1,0-.33H62.17c-.16.55-.23,1.12,2,1.12,1.85,0,2.69-.45,2.91-1.15a.61.61,0,0,0-.12-.66c-.41-.42-2.24-.58-2.44-.8Zm0,0Z"/><polygon class="cls-3" points="89.22 31.46 93.1 31.45 92.88 32.17 90.65 32.17 90.43 32.9 92.53 32.9 92.31 33.59 90.22 33.59 90.01 34.3 92.26 34.29 92.03 35.01 88.13 35.02 89.22 31.45 89.22 31.46"/><path class="cls-3" d="M134,14.76l-3.71,8,.1-8h-6.92l1.32,14.47c-.17.84-.44,1.32-1,1.56a6.89,6.89,0,0,1-2.35.18h-.09l-1.09,3.93h4.67c2.76,0,4.12-1.39,6.08-4.46l10-15.69Zm0,0Z"/><path class="cls-3" d="M113.78,32.52a.15.15,0,0,1,0-.16c0-.18.28-.3.64-.3a1.38,1.38,0,0,1,.63.1.26.26,0,0,1,.1.29h1.51c.18-.64-.22-1.05-1.93-1.05s-2.54.35-2.78,1.13a.61.61,0,0,0,.1.62c.42.41,2.31.58,2.46.8a.17.17,0,0,1,0,.17c-.09.28-.49.36-.84.36a1,1,0,0,1-.61-.15.33.33,0,0,1,0-.32h-1.58c-.16.55-.23,1.12,2,1.12,1.85,0,2.69-.45,2.9-1.15a.57.57,0,0,0-.12-.66c-.4-.42-2.23-.58-2.43-.8Zm0,0Z"/><path class="cls-3" d="M135.07,29a1.24,1.24,0,0,1,0-2.48,1.24,1.24,0,1,1,0,2.48Zm0-2.75a1.51,1.51,0,1,0,1.51,1.51,1.51,1.51,0,0,0-1.51-1.51Z"/><path class="cls-3" d="M134.81,27.62v-.44H135c.18,0,.37,0,.37.22s-.19.22-.37.22Zm.87-.21c0-.3-.18-.47-.55-.47h-.59v1.55h.27v-.63H135l.39.63h.3l-.41-.65a.4.4,0,0,0,.38-.43Zm0,0Z"/><path class="cls-3" d="M134,14.8l-3.7,8,.11-8h-6.91l1.33,14.41a1.9,1.9,0,0,1-1,1.56,6.89,6.89,0,0,1-2.35.18h-.08l-1.09,3.91H125c2.75,0,4.1-1.39,6.06-4.45L141,14.8Z"/></svg>