<svg id="Layer_1" data-name="Layer 1" xmlns="http://www.w3.org/2000/svg" viewBox="0 0 142 40"><defs><style>.cls-1{fill:#00a5e5;}.cls-2{fill:#85bd3c;}</style></defs><path class="cls-1" d="M1,16.33H13.4v3h-9v5.27h8.47v2.88H4.42v8.09H1Z"/><path class="cls-1" d="M14.76,22.51H17.9v2.17H18a4.68,4.68,0,0,1,1.52-1.84,3.78,3.78,0,0,1,2.28-.71h.42a1.59,1.59,0,0,1,.38.07v3L22,25.09h-.45a3.57,3.57,0,0,0-1.79.41,3.28,3.28,0,0,0-1.05,1,3.57,3.57,0,0,0-.52,1.16,4.18,4.18,0,0,0-.19.92v7H14.76Z"/><path class="cls-1" d="M35.85,29.18v.44a3.09,3.09,0,0,1,0,.43H25.93a3.41,3.41,0,0,0,.36,1.29,3.22,3.22,0,0,0,.83,1,4.08,4.08,0,0,0,1.16.67,4,4,0,0,0,1.36.24,4.2,4.2,0,0,0,2.09-.45,3.82,3.82,0,0,0,1.39-1.23l2.11,1.74a6.52,6.52,0,0,1-5.59,2.61,7.92,7.92,0,0,1-2.77-.48,6.62,6.62,0,0,1-2.22-1.36A6,6,0,0,1,23.19,32a7.19,7.19,0,0,1-.53-2.86,7.56,7.56,0,0,1,.53-2.86,6.39,6.39,0,0,1,3.65-3.61,7.32,7.32,0,0,1,2.73-.52,6.72,6.72,0,0,1,2.51.45,5.4,5.4,0,0,1,2,1.33,6.22,6.22,0,0,1,1.31,2.2A9.08,9.08,0,0,1,35.85,29.18Zm-3.23-1.46a4,4,0,0,0-.18-1.19,2.63,2.63,0,0,0-1.52-1.7,3.38,3.38,0,0,0-1.37-.26,3.64,3.64,0,0,0-2.48.89,3.2,3.2,0,0,0-1.13,2.26Z"/><path class="cls-1" d="M51.3,35.54H48.2v-2h-.05a4.45,4.45,0,0,1-1.88,1.74,5.77,5.77,0,0,1-2.61.6,6,6,0,0,1-4.71-2,6.63,6.63,0,0,1-1.27-2.2,8.27,8.27,0,0,1-.45-2.7,7.69,7.69,0,0,1,.46-2.69A6.57,6.57,0,0,1,39,24.11a6.08,6.08,0,0,1,4.6-2,5.58,5.58,0,0,1,2.83.7,4.6,4.6,0,0,1,.91.66,4.53,4.53,0,0,1,.63.68H48V16.38H51.3ZM40.57,29a5.18,5.18,0,0,0,.23,1.52,4,4,0,0,0,.7,1.35,3.53,3.53,0,0,0,1.16,1,3.73,3.73,0,0,0,3.26,0,4,4,0,0,0,1.21-1,4.23,4.23,0,0,0,.76-1.34,4.51,4.51,0,0,0,.26-1.5,4.62,4.62,0,0,0-.26-1.52,4.14,4.14,0,0,0-2-2.34,3.28,3.28,0,0,0-1.6-.38,3.35,3.35,0,0,0-2.82,1.35,4.19,4.19,0,0,0-.7,1.34A5.17,5.17,0,0,0,40.57,29Z"/><path class="cls-1" d="M66.88,35.54h-3.1v-2h-.05a4.44,4.44,0,0,1-1.86,1.76,5.77,5.77,0,0,1-2.61.6,6.32,6.32,0,0,1-2.68-.56,6.07,6.07,0,0,1-2-1.49,6.49,6.49,0,0,1-1.28-2.2,8.27,8.27,0,0,1-.45-2.7,7.69,7.69,0,0,1,.46-2.69,6.57,6.57,0,0,1,1.3-2.17,6.09,6.09,0,0,1,4.56-2,5.64,5.64,0,0,1,2.84.7,5,5,0,0,1,.92.66,4.53,4.53,0,0,1,.63.68h.08V16.38h3.26ZM56.15,29a5.18,5.18,0,0,0,.23,1.52,4.39,4.39,0,0,0,.7,1.36,3.63,3.63,0,0,0,1.16,1,3.73,3.73,0,0,0,3.26,0,3.87,3.87,0,0,0,1.21-1,4.34,4.34,0,0,0,.76-1.34,4.54,4.54,0,0,0,0-3,4.12,4.12,0,0,0-2-2.33,3.28,3.28,0,0,0-1.6-.38,3.56,3.56,0,0,0-1.66.36,3.63,3.63,0,0,0-1.16,1,4.19,4.19,0,0,0-.7,1.34A5.18,5.18,0,0,0,56.15,29Z"/><path class="cls-1" d="M69.23,18.08a1.88,1.88,0,0,1,.59-1.37,2,2,0,0,1,1.45-.58,2.1,2.1,0,0,1,1.5.56,1.9,1.9,0,0,1,.1,2.69h0l-.1.1a2.19,2.19,0,0,1-1.5.56,2,2,0,0,1-1.46-.58A1.93,1.93,0,0,1,69.23,18.08Zm.46,4.42H73V35.56H69.7Z"/><path class="cls-1" d="M88.14,29.18v.44a3.11,3.11,0,0,1,0,.43H78.19a3.41,3.41,0,0,0,.36,1.29,3.25,3.25,0,0,0,.84,1,4.08,4.08,0,0,0,1.16.67,3.89,3.89,0,0,0,1.36.24A4.22,4.22,0,0,0,84,32.8a3.92,3.92,0,0,0,1.4-1.22l2.17,1.74A6.52,6.52,0,0,1,82,35.93a7.8,7.8,0,0,1-2.79-.48,6.46,6.46,0,0,1-2.22-1.37A5.94,5.94,0,0,1,75.47,32,7.36,7.36,0,0,1,75,29.09a7.55,7.55,0,0,1,.52-2.86,6.41,6.41,0,0,1,3.66-3.61,7.28,7.28,0,0,1,2.73-.52,6.75,6.75,0,0,1,2.51.45,5.45,5.45,0,0,1,2,1.33,6.1,6.1,0,0,1,1.32,2.2A9.08,9.08,0,0,1,88.14,29.18Zm-3.26-1.46a4.06,4.06,0,0,0-.18-1.2,2.65,2.65,0,0,0-1.52-1.7,3.37,3.37,0,0,0-1.37-.25,3.63,3.63,0,0,0-2.48.88,3.22,3.22,0,0,0-1.13,2.27Z"/><path class="cls-2" d="M92.54,16.33h5.37l5,13.65H103l4.92-13.65h5.38V35.55h-3.4V20.09h0L104,35.54h-2.39L95.86,20.09h0V35.54H92.56Z"/><path class="cls-2" d="M124.23,33.88h-.08a3.62,3.62,0,0,1-1.57,1.43,5.26,5.26,0,0,1-2.47.55,7,7,0,0,1-1.64-.2,4.72,4.72,0,0,1-1.56-.68,3.87,3.87,0,0,1-1.2-1.25,3.55,3.55,0,0,1-.47-1.91,3.2,3.2,0,0,1,.82-2.33,5.29,5.29,0,0,1,2.13-1.33,12,12,0,0,1,2.9-.62c1-.09,2.08-.14,3.13-.15v-.32a2,2,0,0,0-.88-1.81,3.77,3.77,0,0,0-2.09-.58,4.64,4.64,0,0,0-2,.43,5.51,5.51,0,0,0-1.57,1l-1.68-2a7.44,7.44,0,0,1,2.56-1.57,9,9,0,0,1,3-.52,7.34,7.34,0,0,1,2.86.49,4.48,4.48,0,0,1,2.69,3,8.08,8.08,0,0,1,.25,1.95v8h-3Zm0-4.29h-.73a13.49,13.49,0,0,0-1.65.07,7.26,7.26,0,0,0-1.61.3,3.35,3.35,0,0,0-1.22.65,1.44,1.44,0,0,0-.49,1.15,1.4,1.4,0,0,0,.2.78,1.61,1.61,0,0,0,.52.52,2.44,2.44,0,0,0,.74.27,3.65,3.65,0,0,0,.81.08,3.39,3.39,0,0,0,2.56-.89,3.35,3.35,0,0,0,.87-2.45Z"/><path class="cls-2" d="M138.78,26.12a3,3,0,0,0-1.15-.92,3.54,3.54,0,0,0-1.57-.36,3.25,3.25,0,0,0-1.56.36,3.52,3.52,0,0,0-1.13,1,3.9,3.9,0,0,0-.66,1.34,5.09,5.09,0,0,0-.22,1.5,4.85,4.85,0,0,0,.23,1.51,4.24,4.24,0,0,0,.7,1.35,3.39,3.39,0,0,0,2.77,1.34,4.38,4.38,0,0,0,1.52-.3,2.89,2.89,0,0,0,1.22-.87l2,2.06a5.35,5.35,0,0,1-2.09,1.35,7.69,7.69,0,0,1-2.73.47,7.85,7.85,0,0,1-2.72-.46,6.35,6.35,0,0,1-3.77-3.53,7.07,7.07,0,0,1-.56-2.9,6.81,6.81,0,0,1,.56-2.85,6.58,6.58,0,0,1,3.73-3.59,7.51,7.51,0,0,1,5.48.06A5.11,5.11,0,0,1,141,24.16Z"/><polygon class="cls-2" points="43.4 16.38 43.4 12.31 30.73 4.07 18.07 12.31 18.07 16.38 30.73 8.11 43.4 16.38"/><polygon class="cls-2" points="39.93 9.01 39.93 4.07 36.45 4.07 36.45 6.75 39.93 9.01"/></svg>