<svg id="Layer_1" data-name="Layer 1" xmlns="http://www.w3.org/2000/svg" viewBox="0 0 142 40"><defs><style>.cls-1{fill:#ea4335;}.cls-2{fill:#fbbc05;}.cls-3{fill:#4285f4;}.cls-4{fill:#34a853;}</style></defs><path class="cls-1" d="M62.68,21a9.53,9.53,0,0,1-19,0,9.53,9.53,0,0,1,19,0Zm-4.17,0A5.37,5.37,0,1,0,47.8,21a5.37,5.37,0,1,0,10.71,0Z"/><path class="cls-2" d="M83.23,21a9.53,9.53,0,0,1-19,0,9.53,9.53,0,0,1,19,0Zm-4.17,0a5.37,5.37,0,1,0-10.71,0,5.37,5.37,0,1,0,10.71,0Z"/><path class="cls-3" d="M102.92,12.08v17c0,7-4.13,9.88-9,9.88a9.06,9.06,0,0,1-8.42-5.6l3.63-1.51a5.25,5.25,0,0,0,4.79,3.37C97,35.26,99,33.33,99,29.7V28.33h-.14a6.46,6.46,0,0,1-5,2.16,9.5,9.5,0,0,1,0-19,6.59,6.59,0,0,1,5,2.13H99V12.08Zm-3.66,9c0-3.34-2.23-5.79-5.07-5.79A5.49,5.49,0,0,0,88.9,21a5.45,5.45,0,0,0,5.29,5.72C97,26.75,99.26,24.34,99.26,21Z"/><path class="cls-4" d="M109.45,2.08V29.91h-4.06V2.08Z"/><path class="cls-1" d="M125.3,24.12l3.24,2.16a9.45,9.45,0,0,1-7.91,4.21A9.29,9.29,0,0,1,111.2,21c0-5.64,4.07-9.49,9-9.49s7.34,3.92,8.13,6l.43,1.08L116,23.87a4.82,4.82,0,0,0,4.6,2.88,5.41,5.41,0,0,0,4.67-2.63Zm-10-3.41,8.49-3.53a3.7,3.7,0,0,0-3.53-2A5.21,5.21,0,0,0,115.34,20.71Z"/><path class="cls-3" d="M28.24,18.53v-4H41.81a13.56,13.56,0,0,1,.2,2.43,13.27,13.27,0,0,1-3.49,9.42,13.47,13.47,0,0,1-10.28,4.14,15,15,0,0,1-15-14.75A15,15,0,0,1,28.24,1a14,14,0,0,1,10.1,4.06L35.5,7.91A10.26,10.26,0,0,0,28.24,5,10.57,10.57,0,0,0,17.66,15.74,10.58,10.58,0,0,0,28.24,26.46a9.87,9.87,0,0,0,7.44-2.95,8.33,8.33,0,0,0,2.18-5Z"/></svg>