<svg id="Layer_1" data-name="Layer 1" xmlns="http://www.w3.org/2000/svg" viewBox="0 0 142 40"><defs><style>.cls-1{fill:#0068b5;}</style></defs><path class="cls-1" d="M22,1.53h7.09V8.62H22Z"/><path d="M28.94,38.47V12.91H22.2V38.44h6.74Zm44.61.25V32.46a15.61,15.61,0,0,1-2.42-.15,2.74,2.74,0,0,1-1.59-.7,2.84,2.84,0,0,1-.71-1.54,16.57,16.57,0,0,1-.15-2.48v-8.9h4.87V12.91H68.68V3H61.94v24.7a22.36,22.36,0,0,0,.53,5.27,6.71,6.71,0,0,0,5.07,5.23,19.62,19.62,0,0,0,5.13.55Zm38.55-.25V1h-6.73V38.47Zm-56.64-23a10.15,10.15,0,0,0-7.83-3,9.72,9.72,0,0,0-4.41,1,9.57,9.57,0,0,0-3.36,2.72l-.35.48V12.91H32.87V38.44h6.69V25.32c.08-2.39.66-4.16,1.77-5.29a5.74,5.74,0,0,1,4.26-1.82A5.52,5.52,0,0,1,50,20a7.53,7.53,0,0,1,1.46,4.9V38.44h6.79V24c0-3.63-.94-6.51-2.8-8.53Zm46.42,10.22a13.28,13.28,0,0,0-3.65-9.38,12.23,12.23,0,0,0-4.17-2.83,13.64,13.64,0,0,0-5.35-1,13.24,13.24,0,0,0-5.19,1,13.6,13.6,0,0,0-4.22,2.83,13.3,13.3,0,0,0-2.82,4.21,12.82,12.82,0,0,0-1,5.2,13.82,13.82,0,0,0,1,5.2,12.77,12.77,0,0,0,2.76,4.21,12.46,12.46,0,0,0,4.26,2.83A13.86,13.86,0,0,0,88.91,39a14.47,14.47,0,0,0,11.36-5l-4.85-3.69A8.78,8.78,0,0,1,89,33.15a7.58,7.58,0,0,1-4.65-1.32,6.49,6.49,0,0,1-2.42-3.55l-.08-.23h20.06Zm-20-2.34c0-1.87,2.15-5.13,6.77-5.15s6.78,3.25,6.78,5.12Zm37.9,11.93a2.3,2.3,0,0,0-.53-.78,2.21,2.21,0,0,0-.78-.53,2.43,2.43,0,0,0-1-.2,2.39,2.39,0,0,0-1,.2,2.3,2.3,0,0,0-.78.53A2.47,2.47,0,0,0,115,36.2a2.53,2.53,0,0,0,.2,1,2.63,2.63,0,0,0,.53.78,2.45,2.45,0,0,0,.78.53,2.5,2.5,0,0,0,1,.2,2.47,2.47,0,0,0,1.74-.73,2.3,2.3,0,0,0,.53-.78,2.3,2.3,0,0,0,0-1.92Zm-.4,1.77a1.85,1.85,0,0,1-.43.65,1.94,1.94,0,0,1-.65.43,2.16,2.16,0,0,1-.81.15,2.2,2.2,0,0,1-.81-.15,2,2,0,0,1-1.24-1.89,2,2,0,0,1,.16-.81,1.87,1.87,0,0,1,1.08-1.08,2.12,2.12,0,0,1,.81-.15,2.24,2.24,0,0,1,.81.15,1.94,1.94,0,0,1,.65.43,1.85,1.85,0,0,1,.43.65,2.12,2.12,0,0,1,.15.81,2.16,2.16,0,0,1-.15.81ZM118,36.43a.81.81,0,0,0,.48-.23.77.77,0,0,0,.2-.56.79.79,0,0,0-.25-.63,1.1,1.1,0,0,0-.76-.22h-1.11v2.85h.53V36.48h.38l.7,1.16h.56Zm-.28-.43h-.63v-.81h.63a1,1,0,0,1,.23.05.32.32,0,0,1,.15.13c0,.05,0,.12,0,.22a.61.61,0,0,1,0,.23.87.87,0,0,1-.15.13,1,1,0,0,1-.23,0Z"/></svg>