<svg id="Layer_1" data-name="Layer 1" xmlns="http://www.w3.org/2000/svg" xmlns:xlink="http://www.w3.org/1999/xlink" viewBox="0 0 142 40"><defs><style>.cls-1{fill:#0081fb;}.cls-2{fill:url(#linear-gradient);}.cls-3{fill:url(#linear-gradient-2);}.cls-4{fill:#192830;}</style><linearGradient id="linear-gradient" x1="5.55" y1="45.26" x2="35.58" y2="43.74" gradientTransform="matrix(0.97, 0, 0, -0.97, 4.81, 63.34)" gradientUnits="userSpaceOnUse"><stop offset="0" stop-color="#0064e1"/><stop offset="0.4" stop-color="#0064e1"/><stop offset="0.83" stop-color="#0073ee"/><stop offset="1" stop-color="#0082fb"/></linearGradient><linearGradient id="linear-gradient-2" x1="2.37" y1="37.91" x2="2.37" y2="48.98" gradientTransform="matrix(0.97, 0, 0, -0.97, 4.81, 63.34)" gradientUnits="userSpaceOnUse"><stop offset="0" stop-color="#0082fb"/><stop offset="1" stop-color="#0064e0"/></linearGradient></defs><path class="cls-1" d="M5.59,24.5a7.05,7.05,0,0,0,.82,3.62,2.81,2.81,0,0,0,2.45,1.4c1.19,0,2.29-.29,4.39-3.21,1.69-2.34,3.68-5.62,5-7.68l2.27-3.48A34.21,34.21,0,0,1,26,8.21,8.31,8.31,0,0,1,31.44,5.9c3.11,0,6.07,1.8,8.34,5.18a23.75,23.75,0,0,1,3.69,13.18,12.87,12.87,0,0,1-1.53,6.63,6.34,6.34,0,0,1-5.77,3.21V29.52c2.6,0,3.25-2.39,3.25-5.13a21.69,21.69,0,0,0-2.91-11.32c-1.43-2.2-3.27-3.54-5.3-3.54-2.19,0-3.95,1.66-5.94,4.6-1.05,1.57-2.13,3.48-3.35,5.64l-1.34,2.37a60.87,60.87,0,0,1-4.71,7.64c-2.36,3.13-4.37,4.32-7,4.32A6.87,6.87,0,0,1,2.5,30.69,12.3,12.3,0,0,1,1,24.33Z"/><path class="cls-2" d="M4.62,11.41C6.72,8.16,9.75,5.9,13.24,5.9a9.28,9.28,0,0,1,6.11,2.3c2.29,1.87,4.73,5,7.77,10L28.21,20a78.08,78.08,0,0,0,5,7.71c1.13,1.36,1.92,1.77,3,1.77,2.6,0,3.25-2.39,3.25-5.13l4-.13a12.87,12.87,0,0,1-1.53,6.63,6.34,6.34,0,0,1-5.77,3.21A7.21,7.21,0,0,1,30.75,32a30.58,30.58,0,0,1-4.37-5.87l-3.81-6.36a43.47,43.47,0,0,0-4.68-6.65c-1.09-1.16-2.49-2.56-4.73-2.56-1.81,0-3.35,1.27-4.64,3.22Z"/><path class="cls-3" d="M13.16,10.51c-1.81,0-3.35,1.27-4.64,3.22A20.42,20.42,0,0,0,5.59,24.5a7.05,7.05,0,0,0,.82,3.62L2.5,30.69A12.3,12.3,0,0,1,1,24.33,24.26,24.26,0,0,1,4.62,11.41C6.72,8.16,9.75,5.9,13.24,5.9Z"/><path class="cls-4" d="M52.38,6.79h5.31l9,16.32,9-16.32h5.2V33.61H76.6V13.05L68.68,27.29H64.62L56.71,13.05V33.61H52.38Zm42.11,10c-3.11,0-5,2.33-5.42,5.23H99.6c-.21-3-1.93-5.23-5.11-5.23Zm-9.71,6.88c0-6.09,3.93-10.52,9.78-10.52s9.2,4.37,9.2,10.84v1.19H89.07c.52,3.15,2.61,5.27,6,5.27a7.9,7.9,0,0,0,6-2.32l2.3,2.81a11.93,11.93,0,0,1-8.41,3.15C88.55,34.09,84.78,29.46,84.78,23.67ZM109,17.17h-4V13.63h4V7.77h4.17v5.86h6.06v3.54h-6.06v9c0,3.06,1,4.15,3.4,4.15a13.59,13.59,0,0,0,2.66-.25v3.51a12.37,12.37,0,0,1-3.47.48q-6.76,0-6.76-7.4Zm27.81,3.45a5.64,5.64,0,0,0-5.46-3.68c-3.57,0-5.86,2.54-5.86,6.67s2.11,6.68,5.69,6.68a5.87,5.87,0,0,0,5.63-3.68Zm4.18,13h-4.1v-2.8a7.71,7.71,0,0,1-6.61,3.28c-5.43,0-9.06-4.55-9.06-10.48s3.72-10.46,9.29-10.46a7.63,7.63,0,0,1,6.38,3V13.63H141Z"/></svg>