<svg id="Layer_1" data-name="Layer 1" xmlns="http://www.w3.org/2000/svg" viewBox="0 0 142 40"><defs><style>.cls-1{fill:#737373;}.cls-2{fill:#f25022;}.cls-3{fill:#7fba00;}.cls-4{fill:#00a4ef;}.cls-5{fill:#ffb900;}</style></defs><path class="cls-1" d="M59.22,11V29H56.11V14.9h0L50.51,29H48.44L42.76,14.9h0V29H39.86V11h4.48l5.14,13.27h.08L55,11Zm2.57,1.37a1.57,1.57,0,0,1,.54-1.24,1.88,1.88,0,0,1,1.29-.5,1.84,1.84,0,0,1,1.33.5,1.71,1.71,0,0,1,.53,1.24A1.6,1.6,0,0,1,65,13.66a1.9,1.9,0,0,1-1.33.49,1.73,1.73,0,0,1-1.29-.49A1.91,1.91,0,0,1,61.79,12.41Zm3.36,3.69V29h-3V16.1Zm9.17,10.66a3.48,3.48,0,0,0,1.49-.33,6.55,6.55,0,0,0,1.49-.83v2.82a5.06,5.06,0,0,1-1.66.62,10.46,10.46,0,0,1-2,.21A6.06,6.06,0,0,1,69,27.46a6.18,6.18,0,0,1-1.78-4.56,7.34,7.34,0,0,1,1.82-5.1,6.58,6.58,0,0,1,5.14-2,7.33,7.33,0,0,1,1.7.21,5.3,5.3,0,0,1,1.37.5v2.9a6,6,0,0,0-1.41-.79,4.92,4.92,0,0,0-1.49-.29,3.76,3.76,0,0,0-2.9,1.16,4.35,4.35,0,0,0-1.08,3.15,4.12,4.12,0,0,0,1.08,3,3.84,3.84,0,0,0,2.86,1.08ZM85.89,15.89a2.77,2.77,0,0,1,.66,0,4.66,4.66,0,0,1,.5.12v3.07a1.74,1.74,0,0,0-.71-.33,3.94,3.94,0,0,0-1.12-.17,2.3,2.3,0,0,0-1.86,1,4.55,4.55,0,0,0-.79,2.9V29h-3V16.1h3v2h0a3.88,3.88,0,0,1,1.25-1.65,3.59,3.59,0,0,1,2-.59Zm1.32,6.85A7.16,7.16,0,0,1,89,17.68a6.57,6.57,0,0,1,5-1.87,6.11,6.11,0,0,1,4.69,1.78,6.87,6.87,0,0,1,1.7,4.86,7,7,0,0,1-1.78,5,6.46,6.46,0,0,1-4.9,1.87A6.37,6.37,0,0,1,89,27.55a6.68,6.68,0,0,1-1.75-4.81Zm3.16-.13a4.52,4.52,0,0,0,.91,3.07,3.29,3.29,0,0,0,2.61,1.08,3,3,0,0,0,2.53-1.08,4.83,4.83,0,0,0,.87-3.15,5,5,0,0,0-.87-3.15,3.46,3.46,0,0,0-5.06,0,4.56,4.56,0,0,0-1,3.19Zm14.51-3.11a1.29,1.29,0,0,0,.42,1,7,7,0,0,0,1.82.91,6.41,6.41,0,0,1,2.53,1.62,3.35,3.35,0,0,1,.75,2.2,3.49,3.49,0,0,1-1.41,2.9,5.84,5.84,0,0,1-3.78,1.08,10.18,10.18,0,0,1-1.78-.21,7,7,0,0,1-1.66-.5v-3a7.48,7.48,0,0,0,1.78.91,5.59,5.59,0,0,0,1.75.33,2.76,2.76,0,0,0,1.49-.29,1,1,0,0,0,.5-1,1.46,1.46,0,0,0-.5-1.08,7.92,7.92,0,0,0-1.91-1,5.59,5.59,0,0,1-2.36-1.57,3.76,3.76,0,0,1,.66-5.1,5.47,5.47,0,0,1,3.57-1.12,6.83,6.83,0,0,1,1.49.16c.54.13,1,.25,1.41.38v2.94a8.42,8.42,0,0,0-1.41-.7,4.35,4.35,0,0,0-1.58-.29,2.27,2.27,0,0,0-1.32.33A1.33,1.33,0,0,0,104.88,19.5Zm6.8,3.24a7.15,7.15,0,0,1,1.78-5.06,6.6,6.6,0,0,1,5-1.87,6.11,6.11,0,0,1,4.69,1.78,6.87,6.87,0,0,1,1.7,4.86,7,7,0,0,1-1.79,5,7.31,7.31,0,0,1-9.62.13A6.85,6.85,0,0,1,111.68,22.74Zm3.15-.13a4.47,4.47,0,0,0,.92,3.07,3.29,3.29,0,0,0,2.61,1.08,3,3,0,0,0,2.53-1.08,4.83,4.83,0,0,0,.87-3.15,5,5,0,0,0-.87-3.15,3.46,3.46,0,0,0-5.06,0,4.71,4.71,0,0,0-1,3.19Zm20.07-4h-4.52V29h-3.06V18.59h-2.16V16.1h2.16V14.32A4.45,4.45,0,0,1,132,9.72c.37,0,.71,0,1,0a2,2,0,0,1,.74.16v2.62a3.17,3.17,0,0,0-.54-.21,2.84,2.84,0,0,0-.87-.13,1.88,1.88,0,0,0-1.45.58,2.68,2.68,0,0,0-.5,1.75v1.53h4.52v-2.9l3-.91v3.81H141v2.49h-3.07v6a2.74,2.74,0,0,0,.42,1.66,1.72,1.72,0,0,0,1.36.5,1.91,1.91,0,0,0,.63-.13,2,2,0,0,0,.62-.29v2.49a2.73,2.73,0,0,1-1,.29,7.38,7.38,0,0,1-1.32.13,3.75,3.75,0,0,1-2.86-1,4.34,4.34,0,0,1-1-3.07Z"/><path class="cls-2" d="M1,5.07H15.18V19.25H1Z"/><path class="cls-3" d="M16.68,5.07H30.86V19.25H16.68Z"/><path class="cls-4" d="M1,20.75H15.18V34.93H1Z"/><path class="cls-5" d="M16.68,20.75H30.86V34.93H16.68Z"/></svg>