<svg id="Layer_1" data-name="Layer 1" xmlns="http://www.w3.org/2000/svg" viewBox="0 0 142 40"><defs><style>.cls-1{fill:#253b80;}.cls-2{fill:#179bd7;}.cls-3{fill:#222d65;}</style></defs><path class="cls-1" d="M53.35,10.55H45.6a1.07,1.07,0,0,0-1.06.91L41.4,31.33a.64.64,0,0,0,.54.73h3.8a1.08,1.08,0,0,0,1.07-.91l.84-5.36a1.08,1.08,0,0,1,1.06-.91h2.46q7.65,0,8.81-7.36a6,6,0,0,0-1-5c-1.11-1.29-3.06-2-5.65-2Zm.89,7.26c-.42,2.78-2.55,2.78-4.6,2.78H48.47l.82-5.19a.65.65,0,0,1,.64-.55h.54c1.39,0,2.71,0,3.4.8a2.58,2.58,0,0,1,.37,2.16Zm22.27-.09H72.8a.65.65,0,0,0-.64.54l-.17,1-.25-.38c-.81-1.16-2.6-1.55-4.39-1.55a8.52,8.52,0,0,0-8.28,7.46,7,7,0,0,0,1.38,5.7,5.82,5.82,0,0,0,4.68,1.89,7.08,7.08,0,0,0,5.13-2.13l-.17,1a.65.65,0,0,0,.54.74h3.44a1.08,1.08,0,0,0,1.07-.91l2-12.7a.63.63,0,0,0-.53-.73Zm-5.17,7.22a4.13,4.13,0,0,1-4.19,3.54,2.87,2.87,0,0,1-3.07-3.61,4.14,4.14,0,0,1,4.15-3.57,3.14,3.14,0,0,1,2.48,1,3.25,3.25,0,0,1,.63,2.63Zm24.93-7.22H92.54a1.08,1.08,0,0,0-.89.47L86.5,25.76l-2.18-7.27a1.06,1.06,0,0,0-1-.77H79.63a.65.65,0,0,0-.65.64.76.76,0,0,0,0,.21l4.11,12.05-3.86,5.45a.64.64,0,0,0,.53,1h3.72a1.1,1.1,0,0,0,.89-.46l12.4-17.9a.65.65,0,0,0-.17-.9.66.66,0,0,0-.36-.11Z"/><path class="cls-2" d="M108.61,10.55h-7.75a1.07,1.07,0,0,0-1.06.91L96.66,31.33a.64.64,0,0,0,.54.73h4.08a.75.75,0,0,0,.74-.63l.89-5.64a1.08,1.08,0,0,1,1.06-.91h2.45q7.67,0,8.82-7.36a5.93,5.93,0,0,0-1-5c-1.1-1.29-3-2-5.64-2Zm.89,7.26c-.42,2.78-2.54,2.78-4.6,2.78h-1.17l.82-5.19a.65.65,0,0,1,.64-.55h.54c1.39,0,2.72,0,3.4.8a2.58,2.58,0,0,1,.37,2.16Zm22.27-.09h-3.71a.65.65,0,0,0-.64.54l-.16,1-.26-.38c-.81-1.16-2.6-1.55-4.38-1.55a8.54,8.54,0,0,0-8.29,7.46,7,7,0,0,0,1.38,5.7,5.83,5.83,0,0,0,4.68,1.89,7.08,7.08,0,0,0,5.13-2.13l-.16,1a.63.63,0,0,0,.53.74h3.45a1.07,1.07,0,0,0,1.06-.91l2-12.7a.64.64,0,0,0-.55-.73Zm-5.18,7.22a4.12,4.12,0,0,1-4.18,3.54,3.1,3.1,0,0,1-2.49-1,3.17,3.17,0,0,1-.59-2.61,4.16,4.16,0,0,1,4.16-3.57,3.14,3.14,0,0,1,2.48,1A3.21,3.21,0,0,1,126.59,24.94Zm9.55-13.84L133,31.33a.63.63,0,0,0,.54.73h3.29a1.08,1.08,0,0,0,1.07-.91L141,11.3a.64.64,0,0,0-.53-.74h-3.68A.65.65,0,0,0,136.14,11.1Z"/><path class="cls-1" d="M9.23,35.93l.59-3.76-1.32,0H2.2L6.58,4.37a.37.37,0,0,1,.36-.3H17.56c3.53,0,6,.73,7.24,2.18A5,5,0,0,1,26,8.42a7.67,7.67,0,0,1,0,3v.85l.59.34a4,4,0,0,1,1.21.92,4.29,4.29,0,0,1,1,2.19,9.31,9.31,0,0,1-.14,3.19,11.23,11.23,0,0,1-1.3,3.6,7.49,7.49,0,0,1-2.07,2.27A8.59,8.59,0,0,1,22.43,26a14.16,14.16,0,0,1-3.48.4h-.82a2.52,2.52,0,0,0-1.62.59,2.49,2.49,0,0,0-.84,1.51l-.06.34-1,6.63-.05.24c0,.08,0,.12-.06.14a.17.17,0,0,1-.11,0Z"/><path class="cls-2" d="M27.11,11.59c0,.21-.07.41-.11.63-1.4,7.19-6.19,9.68-12.32,9.68H11.56a1.51,1.51,0,0,0-1.49,1.28L8.47,33.3,8,36.17a.8.8,0,0,0,.66.91h5.66A1.32,1.32,0,0,0,15.65,36l.06-.28,1-6.61.06-.36a1.33,1.33,0,0,1,1.32-1.12H19c5.36,0,9.55-2.18,10.78-8.47.51-2.63.25-4.83-1.11-6.37a5.38,5.38,0,0,0-1.51-1.17Z"/><path class="cls-3" d="M25.64,11a10.29,10.29,0,0,0-1.36-.3,18.09,18.09,0,0,0-2.75-.21H13.2a1.33,1.33,0,0,0-1.31,1.13L10.12,22.85l0,.33a1.5,1.5,0,0,1,1.49-1.28h3.12c6.13,0,10.92-2.49,12.32-9.68,0-.22.08-.42.11-.63A8.22,8.22,0,0,0,26,11.11l-.32-.1Z"/><path class="cls-1" d="M11.89,11.63a1.31,1.31,0,0,1,1.31-1.12h8.33a16.84,16.84,0,0,1,2.75.2,10.8,10.8,0,0,1,1.68.4,7.48,7.48,0,0,1,1.15.48c.42-2.66,0-4.47-1.44-6.11-1.59-1.8-4.45-2.57-8.11-2.57H6.94a1.51,1.51,0,0,0-1.5,1.28L1,32.24a.92.92,0,0,0,.76,1h6.7l1.65-10.45Z"/></svg>