<svg id="Layer_1" data-name="Layer 1" xmlns="http://www.w3.org/2000/svg" viewBox="0 0 142 40"><defs><style>.cls-1{fill-rule:evenodd;}</style></defs><g id="g32"><path id="path18" class="cls-1" d="M116.66,20.63c0-6.49-3.14-11.61-9.16-11.61s-9.69,5.12-9.69,11.56c0,7.64,4.32,11.49,10.51,11.49a14.17,14.17,0,0,0,7-1.64V25.35a13.47,13.47,0,0,1-6.21,1.4c-2.46,0-4.65-.86-4.92-3.86h12.4C116.61,22.56,116.66,21.24,116.66,20.63Zm-12.53-2.41c0-2.86,1.75-4,3.35-4s3.19,1.19,3.19,4Z"/><path id="path20" class="cls-1" d="M88,9a7.19,7.19,0,0,0-5,2l-.33-1.57H77.14V39l6.34-1.34,0-7.18A7.12,7.12,0,0,0,88,32.07c4.54,0,8.67-3.65,8.67-11.69C96.65,13,92.46,9,88,9ZM86.5,26.49a3.76,3.76,0,0,1-3-1.19l0-9.41a3.76,3.76,0,0,1,3-1.24c2.31,0,3.91,2.58,3.91,5.91S88.83,26.49,86.5,26.49Z"/><path id="polygon22" class="cls-1" d="M74.78,1,68.41,2.34V7.52l6.37-1.37Z"/><path id="rect24" class="cls-1" d="M68.41,9.45h6.37V31.64H68.41Z"/><path id="path26" class="cls-1" d="M61.59,11.32l-.41-1.87H55.7V31.64h6.35v-15a4.48,4.48,0,0,1,4.82-1.32V9.45a4.3,4.3,0,0,0-5.28,1.87Z"/><path id="path28" class="cls-1" d="M48.91,3.94,42.72,5.26l0,20.32a6.37,6.37,0,0,0,6.57,6.52,9.76,9.76,0,0,0,4.44-.84V26.11c-.81.33-4.82,1.5-4.82-2.25v-9H53.7V9.45H48.88Z"/><path id="path30" class="cls-1" d="M31.76,15.89c0-1,.81-1.37,2.15-1.37a14.11,14.11,0,0,1,6.29,1.62v-6A16.82,16.82,0,0,0,33.91,9c-5.15,0-8.57,2.68-8.57,7.17,0,7,9.64,5.89,9.64,8.91,0,1.17-1,1.55-2.44,1.55a15.88,15.88,0,0,1-6.92-2v6a17.48,17.48,0,0,0,6.92,1.45c5.28,0,8.91-2.61,8.91-7.15,0-7.56-9.69-6.22-9.69-9.06Z"/></g></svg>