<svg id="Layer_1" data-name="Layer 1" xmlns="http://www.w3.org/2000/svg" viewBox="0 0 142 40"><defs><style>.cls-1{fill:#46bac7;}.cls-2{fill:#e42756;}</style></defs><path d="M69.08,12.12h4.81V32.23H69.08Z"/><path d="M73.83,23.42l3.7-1.91L85,32.23H79.69Z"/><path d="M72.6,22.52l-.32,6.09,12-11.73H78.56ZM46.35,12.12h15L60,16.32H46.35Zm16,6.53h4.81V32.23H62.31Z"/><path d="M51.26,15.54h4.81V32.23H51.26ZM120,12.12h4.81V32.23H120Z"/><path d="M124.76,23.42l3.69-1.91L136,32.23h-5.35Z"/><path d="M123.53,22.52l-.33,6.09,12-11.73h-5.75ZM86.07,12.12h15.32l-1.32,4.2h-14Z"/><path d="M91,15.54h4.81V32.23H91Z"/><circle cx="64.71" cy="14.56" r="2.45"/><path class="cls-1" d="M108.85,15.81h-1.1a8.24,8.24,0,1,0,0,16.48H109l-.48-1.39-3.38-2.06-1.84-7.2,4.16-3.54Z"/><path class="cls-2" d="M110.48,18.1l4.15,3.54-1.83,7.2-3.39,2.06-.47,1.39h1.21a8.24,8.24,0,1,0,0-16.48H109Z"/><path d="M109,15.81a8.24,8.24,0,1,0,8.31,8.24A8.28,8.28,0,0,0,109,15.81Zm0,12.3A4.07,4.07,0,1,1,113,24.05,4.07,4.07,0,0,1,109,28.11Z"/><path class="cls-1" d="M22.8,1v24.9a5.27,5.27,0,1,1-5.27-5.27,5.08,5.08,0,0,1,1.52.23V14.48a11,11,0,0,0-1.52-.1A11.52,11.52,0,1,0,29,25.9V13.17A14.88,14.88,0,0,0,37.77,16V9.76A8.75,8.75,0,0,1,29,1H22.8Z"/><path class="cls-2" d="M24.62,2.59v24.9a5.26,5.26,0,1,1-5.26-5.27,5.08,5.08,0,0,1,1.52.23V16.06a11,11,0,0,0-1.52-.1,11.52,11.52,0,1,0,11.5,11.52V14.75a14.88,14.88,0,0,0,8.74,2.81V11.34a8.75,8.75,0,0,1-8.74-8.76H24.62Z"/><path d="M37.77,11.14A8.67,8.67,0,0,1,33,8.36a8.76,8.76,0,0,1-3.86-5.78H24.62v24.9a5.26,5.26,0,0,1-9.52,3.08,5.26,5.26,0,0,1,2.43-9.93,5.08,5.08,0,0,1,1.52.23V16A11.51,11.51,0,0,0,11,35.37,11.48,11.48,0,0,0,29,25.9V13.17A14.93,14.93,0,0,0,37.77,16V11.14Z"/></svg>