<svg id="Layer_1" data-name="Layer 1" xmlns="http://www.w3.org/2000/svg" viewBox="0 0 142 40"><defs><style>.cls-1{fill:#00358e;}.cls-2{fill:#2a7de1;}</style></defs><path class="cls-1" d="M98.65,14.89a.17.17,0,0,1,.11.15v3.22a.14.14,0,0,1-.2.14A8.24,8.24,0,0,0,95.68,18a6.78,6.78,0,0,0-2.42.43.15.15,0,0,0-.1.14V30.4a.16.16,0,0,1-.16.15H89.65a.15.15,0,0,1-.15-.15V16.2a.17.17,0,0,1,.07-.14,12.85,12.85,0,0,1,6.11-1.54,11.71,11.71,0,0,1,3,.37ZM86.84,21.68v1.7a.15.15,0,0,1-.15.15H76.15a.17.17,0,0,0-.16.17,4.3,4.3,0,0,0,1.64,2.95,5.32,5.32,0,0,0,3.3,1.09A9.8,9.8,0,0,0,86,26.31a.15.15,0,0,1,.23.13v2.9a.14.14,0,0,1-.07.13,9.72,9.72,0,0,1-5.51,1.44,8.41,8.41,0,0,1-6-2.19,8,8,0,0,1-2.28-5.93,8.7,8.7,0,0,1,2.17-6.06,7.37,7.37,0,0,1,5.45-2.3c4.31,0,6.78,2.65,6.78,7.27Zm-3.6-.57a.16.16,0,0,0,.15-.16c-.14-2.26-1.32-3.45-3.44-3.45-1.89,0-3.29,1.27-3.8,3.42a.15.15,0,0,0,.14.18h6.95Zm34.13,1.65A8.06,8.06,0,0,0,113.44,21c-1.78-.49-2.41-1-2.41-2s.87-1.69,2.25-1.69a7.23,7.23,0,0,1,4.21,1.48.15.15,0,0,0,.24-.12v-3a.15.15,0,0,0-.07-.13,8.26,8.26,0,0,0-4.49-1.19,10.76,10.76,0,0,0-1.36.08,4.73,4.73,0,0,0-4.29,4.69c0,2.74,1.31,4.11,4.68,4.88,2,.52,2.87,1,2.87,2.18,0,1.39-1.35,1.68-2.49,1.68a8.3,8.3,0,0,1-4.6-1.66.15.15,0,0,0-.24.12v3.14a.13.13,0,0,0,.06.12,8.8,8.8,0,0,0,4.85,1.26,7.06,7.06,0,0,0,4.26-1.17,4.31,4.31,0,0,0,1.71-3.67,4.22,4.22,0,0,0-1.24-3.3ZM103.05,12.42a2.34,2.34,0,0,0,2.29-2.33,2.32,2.32,0,0,0-2.29-2.29,2.31,2.31,0,1,0,0,4.62Zm-1.69,18.12h3.35a.15.15,0,0,0,.15-.15V14.92a.16.16,0,0,0-.15-.16h-3.35a.16.16,0,0,0-.15.16V30.39A.15.15,0,0,0,101.36,30.54Zm26.52-8.7L134.5,15a.16.16,0,0,0-.11-.26h-4.1a.13.13,0,0,0-.11.05l-5.42,5.89a.15.15,0,0,1-.26-.1V9.6a.16.16,0,0,0-.16-.16H121a.16.16,0,0,0-.16.16V30.39a.16.16,0,0,0,.16.15h3.34a.16.16,0,0,0,.16-.15V23.58a.15.15,0,0,1,.27-.1l5.68,7a.33.33,0,0,0,.12.06h4a.15.15,0,0,0,.11-.25L127.87,22a.15.15,0,0,1,0-.2ZM70.47,9.53,63.2,26.08a.15.15,0,0,1-.28,0L55.65,9.53a.16.16,0,0,0-.14-.09H51.77a.15.15,0,0,0-.14.21L60.12,29A3.21,3.21,0,0,0,66,29L74.47,9.65a.15.15,0,0,0-.14-.21H70.6a.16.16,0,0,0-.14.09Zm-60.33.58a1.53,1.53,0,0,1,1.29-.7h6a.3.3,0,0,1,.28.42L16.1,13.45a.33.33,0,0,1-.28.19l-6.94,0a.3.3,0,0,1-.28-.41A19.35,19.35,0,0,1,10.14,10.11ZM15.46,5.2a.3.3,0,0,1-.18-.55,19.67,19.67,0,0,1,22.9,0,.31.31,0,0,1-.19.55ZM20.67,35a.31.31,0,0,1,.28-.18l17,0a.3.3,0,0,1,.18.55,19.73,19.73,0,0,1-18.33,2.39.31.31,0,0,1-.17-.41l1.06-2.4Zm2.14-4.82,1.59-3.61a.32.32,0,0,1,.28-.19l19.83.05a.31.31,0,0,1,.28.41,18.31,18.31,0,0,1-1.55,3.1,1.53,1.53,0,0,1-1.29.7l-18.87-.05a.3.3,0,0,1-.28-.42ZM46,18.21c.06.61.09,1.22.09,1.84s0,1.24-.1,1.85a.3.3,0,0,1-.3.27l-18.86-.05a.31.31,0,0,1-.28-.43l1.05-2.37h0a2.35,2.35,0,0,1,2.18-1.41l15.91,0a.3.3,0,0,1,.3.27Z"/><path class="cls-2" d="M44.81,13.25a17.9,17.9,0,0,0-1.54-3.1A1.55,1.55,0,0,0,42,9.43H24a2.3,2.3,0,0,0-2.09,1.37l-6,13.65a.15.15,0,0,1-.28,0l-2.27-5.21a2.29,2.29,0,0,0-2.09-1.36H7.71a.3.3,0,0,0-.31.27c-.06.6-.1,1.23-.1,1.85a18.18,18.18,0,0,0,.09,1.82.3.3,0,0,0,.31.27H9.44a.31.31,0,0,1,.28.18c.48,1.07,3,6.75,4.61,10.4a1.5,1.5,0,0,0,1.39.91,1.48,1.48,0,0,0,1.38-.91L24.85,15a2.3,2.3,0,0,1,2.09-1.37H44.53A.3.3,0,0,0,44.81,13.25Z"/></svg>